<svg width="32" height="32" viewBox="0 0 32 32" fill="none" xmlns="http://www.w3.org/2000/svg">
<path d="M16 32C24.8366 32 32 24.8366 32 16C32 7.16344 24.8366 0 16 0C7.16344 0 0 7.16344 0 16C0 24.8366 7.16344 32 16 32Z" fill="black"/>
<path d="M11.1575 12.0587V20.385H10.0825V12.9606H6.21624V20.385H5.14124V12.0587H11.1575Z" fill="white"/>
<path d="M18.2481 20.385C18.0131 20.15 17.7906 19.9156 17.4694 19.5725C16.7531 20.24 15.95 20.5237 15.0362 20.5237C13.4181 20.5237 12.4794 19.4369 12.4794 18.1894C12.4794 17.0525 13.1587 16.2744 14.1094 15.7556V15.7187C13.6775 15.175 13.4181 14.57 13.4181 13.9769C13.4181 12.9637 14.1469 11.9262 15.53 11.9262C16.5681 11.9262 17.3706 12.6181 17.3706 13.6925C17.3706 14.5675 16.8644 15.2612 15.5425 15.9162V15.9531C16.2469 16.7687 17.0375 17.6825 17.5687 18.2756C17.9512 17.695 18.2106 16.8919 18.3712 15.8419H19.3594C19.1375 17.1544 18.7794 18.1894 18.1612 18.9181C18.6062 19.3875 19.0362 19.8556 19.5325 20.3881L18.2481 20.385ZM16.9387 18.9519C16.4444 18.4081 15.5181 17.3956 14.5912 16.3331C14.145 16.6175 13.52 17.1487 13.52 18.0256C13.52 18.9769 14.2237 19.7056 15.2244 19.7056C15.5468 19.7056 15.8656 19.6386 16.1607 19.5088C16.4559 19.3791 16.7208 19.1894 16.9387 18.9519ZM14.4062 13.875C14.4062 14.4681 14.6781 14.925 15.0362 15.3694C15.8762 14.8881 16.4194 14.4431 16.4194 13.7387C16.4194 13.2325 16.1356 12.6644 15.4562 12.6644C14.7644 12.6644 14.4062 13.2325 14.4062 13.875V13.875Z" fill="white"/>
<path d="M20.5087 12.17C21.2651 12.0558 22.0288 11.9982 22.7937 11.9975C24.3381 11.9975 25.4375 12.3556 26.1687 13.035C26.91 13.7144 27.3425 14.6781 27.3425 16.0244C27.3425 17.3831 26.9219 18.495 26.1437 19.2606C25.3656 20.0387 24.0812 20.4587 22.4625 20.4587C21.8107 20.4626 21.1593 20.4296 20.5112 20.36L20.5087 12.17ZM21.5825 19.5325C21.8544 19.5819 22.2494 19.595 22.6694 19.595C24.9675 19.595 26.215 18.31 26.215 16.0619C26.2275 14.0981 25.1156 12.85 22.84 12.85C22.4181 12.8433 21.9967 12.8804 21.5825 12.9606V19.5325Z" fill="white"/>
<path d="M16 30.5644C24.0437 30.5644 30.5644 24.0437 30.5644 16C30.5644 7.95633 24.0437 1.43564 16 1.43564C7.95633 1.43564 1.43564 7.95633 1.43564 16C1.43564 24.0437 7.95633 30.5644 16 30.5644Z" stroke="white" stroke-miterlimit="10"/>
</svg>
